<svg id="svg" version="1.1" xmlns="http://www.w3.org/2000/svg" xmlns:xlink="http://www.w3.org/1999/xlink" width="400" height="400" viewBox="0, 0, 400,400"><g id="svgg"><path id="path0" d="M382.400 28.830 C 382.400 29.033,381.781 29.200,381.024 29.200 C 380.267 29.200,379.536 29.380,379.400 29.600 C 379.264 29.820,378.793 30.000,378.353 30.000 C 377.913 30.000,377.664 30.180,377.800 30.400 C 377.936 30.620,377.677 30.800,377.224 30.800 C 376.771 30.800,376.400 30.980,376.400 31.200 C 376.400 31.420,376.055 31.600,375.633 31.600 C 375.212 31.600,374.807 31.767,374.733 31.970 C 374.660 32.174,374.330 32.399,374.000 32.470 C 373.670 32.542,373.130 32.871,372.800 33.203 C 372.470 33.534,371.705 34.060,371.100 34.370 C 370.495 34.681,370.000 35.085,370.000 35.268 C 370.000 35.450,369.680 35.600,369.288 35.600 C 368.897 35.600,368.317 35.960,368.000 36.400 C 367.683 36.840,367.143 37.200,366.800 37.200 C 366.457 37.200,365.917 37.560,365.600 38.000 C 365.283 38.440,364.769 38.800,364.459 38.800 C 364.148 38.800,363.603 39.124,363.247 39.520 C 362.891 39.917,361.950 40.543,361.155 40.913 C 360.360 41.283,359.498 41.841,359.239 42.153 C 358.979 42.466,358.325 42.833,357.784 42.968 C 357.243 43.104,356.800 43.392,356.800 43.608 C 356.800 43.823,356.570 44.000,356.289 44.000 C 356.008 44.000,355.470 44.360,355.093 44.800 C 354.716 45.240,354.035 45.600,353.580 45.600 C 353.125 45.600,352.864 45.780,353.000 46.000 C 353.136 46.220,352.982 46.400,352.657 46.400 C 352.332 46.400,352.007 46.567,351.933 46.770 C 351.860 46.974,351.530 47.199,351.200 47.270 C 350.870 47.342,350.309 47.715,349.953 48.100 C 349.597 48.485,348.982 48.800,348.586 48.800 C 348.191 48.800,347.984 48.917,348.127 49.060 C 348.442 49.375,347.209 50.369,346.482 50.387 C 346.197 50.394,345.528 50.836,344.995 51.369 C 344.462 51.902,343.660 52.454,343.213 52.596 C 342.766 52.738,342.400 53.022,342.400 53.227 C 342.400 53.432,342.170 53.600,341.888 53.600 C 341.607 53.600,341.117 53.960,340.800 54.400 C 340.483 54.840,339.943 55.200,339.600 55.200 C 339.257 55.200,338.717 55.560,338.400 56.000 C 338.083 56.440,337.503 56.800,337.112 56.800 C 336.720 56.800,336.400 56.980,336.400 57.200 C 336.400 57.420,336.164 57.600,335.875 57.600 C 335.587 57.600,334.995 57.915,334.560 58.300 C 334.125 58.685,333.506 59.059,333.184 59.132 C 332.863 59.204,332.330 59.482,332.000 59.749 C 331.670 60.016,330.905 60.482,330.300 60.785 C 329.695 61.088,329.200 61.485,329.200 61.668 C 329.200 61.850,328.964 62.000,328.675 62.000 C 328.386 62.000,327.632 62.540,327.000 63.200 C 326.368 63.860,325.614 64.400,325.325 64.400 C 325.036 64.400,324.800 64.580,324.800 64.800 C 324.800 65.020,324.506 65.200,324.147 65.200 C 323.788 65.200,323.191 65.549,322.822 65.975 C 322.452 66.401,321.891 66.806,321.575 66.875 C 321.259 66.944,320.730 67.271,320.400 67.603 C 320.070 67.934,319.305 68.460,318.700 68.770 C 318.095 69.081,317.600 69.485,317.600 69.668 C 317.600 69.850,317.280 70.000,316.888 70.000 C 316.497 70.000,315.917 70.360,315.600 70.800 C 315.283 71.240,314.703 71.600,314.312 71.600 C 313.920 71.600,313.600 71.780,313.600 72.000 C 313.600 72.220,313.317 72.400,312.971 72.400 C 312.226 72.400,311.131 73.397,311.486 73.752 C 311.622 73.889,311.441 74.000,311.084 74.000 C 310.538 74.000,308.517 75.135,307.000 76.294 C 306.780 76.462,306.105 76.855,305.500 77.168 C 304.895 77.480,304.400 77.885,304.400 78.068 C 304.400 78.250,304.130 78.400,303.800 78.400 C 303.470 78.400,303.200 78.580,303.200 78.800 C 303.200 79.020,302.930 79.200,302.600 79.200 C 302.270 79.200,302.000 79.380,302.000 79.600 C 302.000 79.820,301.629 80.000,301.176 80.000 C 300.723 80.000,300.464 80.180,300.600 80.400 C 300.736 80.620,300.644 80.800,300.395 80.800 C 300.146 80.800,299.671 81.072,299.339 81.404 C 299.007 81.736,298.542 81.888,298.306 81.742 C 298.051 81.585,297.993 81.664,298.162 81.938 C 298.331 82.212,298.193 82.400,297.824 82.400 C 297.481 82.400,297.200 82.580,297.200 82.800 C 297.200 83.020,296.883 83.200,296.496 83.200 C 296.109 83.200,295.568 83.560,295.293 84.000 C 295.018 84.440,294.474 84.800,294.085 84.800 C 293.695 84.800,293.117 85.160,292.800 85.600 C 292.483 86.040,292.033 86.400,291.800 86.400 C 291.567 86.400,291.117 86.760,290.800 87.200 C 290.483 87.640,289.903 88.000,289.512 88.000 C 289.120 88.000,288.800 88.180,288.800 88.400 C 288.800 88.620,288.530 88.800,288.200 88.800 C 287.870 88.800,287.600 88.980,287.600 89.200 C 287.600 89.420,287.330 89.600,287.000 89.600 C 286.670 89.600,286.400 89.780,286.400 90.000 C 286.400 90.220,286.164 90.400,285.875 90.400 C 285.587 90.400,284.964 90.760,284.492 91.200 C 284.020 91.640,283.356 92.000,283.017 92.000 C 282.678 92.000,282.400 92.159,282.400 92.354 C 282.400 92.549,281.733 93.026,280.917 93.413 C 280.101 93.800,279.098 94.495,278.687 94.958 C 278.275 95.421,278.077 95.530,278.246 95.200 C 278.572 94.564,278.141 94.836,276.346 96.400 C 274.810 97.738,274.411 98.000,273.905 98.000 C 273.614 98.000,273.117 98.360,272.800 98.800 C 272.483 99.240,271.943 99.600,271.600 99.600 C 271.257 99.600,270.717 99.960,270.400 100.400 C 270.083 100.840,269.543 101.200,269.200 101.200 C 268.857 101.200,268.317 101.560,268.000 102.000 C 267.683 102.440,267.103 102.800,266.712 102.800 C 266.320 102.800,266.000 102.980,266.000 103.200 C 266.000 103.420,265.629 103.600,265.176 103.600 C 264.723 103.600,264.464 103.780,264.600 104.000 C 264.736 104.220,264.567 104.400,264.224 104.400 C 263.881 104.400,263.600 104.580,263.600 104.800 C 263.600 105.020,263.252 105.200,262.827 105.200 C 262.402 105.200,261.940 105.560,261.800 106.000 C 261.660 106.440,261.243 106.806,260.873 106.813 C 260.029 106.829,258.724 107.790,259.073 108.140 C 259.216 108.283,258.943 108.400,258.467 108.400 C 257.990 108.400,257.600 108.591,257.600 108.824 C 257.600 109.057,257.420 109.136,257.200 109.000 C 256.980 108.864,256.800 108.932,256.800 109.151 C 256.800 109.551,253.872 111.368,253.422 111.247 C 253.290 111.211,252.724 111.639,252.165 112.199 C 251.606 112.758,250.952 113.094,250.712 112.946 C 250.451 112.785,250.391 112.862,250.562 113.138 C 250.731 113.412,250.593 113.600,250.224 113.600 C 249.881 113.600,249.600 113.780,249.600 114.000 C 249.600 114.220,249.210 114.400,248.733 114.400 C 248.257 114.400,247.984 114.517,248.127 114.660 C 248.461 114.995,247.188 115.971,246.396 115.987 C 246.064 115.994,245.568 116.360,245.293 116.800 C 245.018 117.240,244.512 117.600,244.168 117.600 C 243.824 117.600,243.306 117.825,243.016 118.100 C 242.003 119.061,240.980 119.804,239.894 120.368 C 239.292 120.680,238.800 121.063,238.800 121.219 C 238.800 121.375,238.260 121.727,237.600 122.000 C 236.940 122.273,236.400 122.655,236.400 122.849 C 236.400 123.042,236.130 123.200,235.800 123.200 C 235.470 123.200,235.200 123.380,235.200 123.600 C 235.200 123.820,234.930 124.000,234.600 124.000 C 234.270 124.000,234.000 124.180,234.000 124.400 C 234.000 124.620,233.706 124.800,233.347 124.800 C 232.988 124.800,232.367 125.177,231.968 125.637 C 231.569 126.097,231.080 126.373,230.882 126.251 C 230.683 126.128,230.141 126.381,229.677 126.814 C 229.213 127.246,228.691 127.600,228.517 127.600 C 228.343 127.601,227.720 128.006,227.134 128.500 C 226.547 128.995,225.690 129.715,225.229 130.100 C 224.768 130.485,224.163 130.800,223.884 130.800 C 223.605 130.800,223.117 131.160,222.800 131.600 C 222.483 132.040,221.943 132.400,221.600 132.400 C 221.257 132.400,220.717 132.760,220.400 133.200 C 220.083 133.640,219.580 134.000,219.283 134.000 C 218.986 134.000,218.471 134.272,218.139 134.604 C 217.807 134.936,217.342 135.088,217.106 134.942 C 216.851 134.785,216.793 134.864,216.962 135.138 C 217.131 135.412,216.993 135.600,216.624 135.600 C 216.281 135.600,216.000 135.780,216.000 136.000 C 216.000 136.220,215.629 136.400,215.176 136.400 C 214.723 136.400,214.464 136.580,214.600 136.800 C 214.736 137.020,214.567 137.200,214.224 137.200 C 213.881 137.200,213.600 137.380,213.600 137.600 C 213.600 137.820,213.280 138.000,212.888 138.000 C 212.497 138.000,211.917 138.360,211.600 138.800 C 211.283 139.240,210.793 139.600,210.512 139.600 C 210.230 139.600,210.000 139.780,210.000 140.000 C 210.000 140.220,209.719 140.400,209.376 140.400 C 209.033 140.400,208.864 140.580,209.000 140.800 C 209.136 141.020,208.877 141.200,208.424 141.200 C 207.971 141.200,207.600 141.368,207.600 141.573 C 207.600 141.778,207.195 142.069,206.700 142.219 C 206.205 142.369,205.440 142.818,205.000 143.216 C 204.560 143.614,203.930 143.999,203.600 144.070 C 203.270 144.142,202.765 144.515,202.477 144.900 C 202.190 145.285,201.703 145.600,201.396 145.600 C 201.088 145.600,200.377 146.060,199.815 146.622 C 199.253 147.183,198.648 147.553,198.470 147.443 C 198.291 147.333,197.893 147.593,197.585 148.021 C 197.276 148.450,196.703 148.800,196.312 148.800 C 195.920 148.800,195.600 148.958,195.600 149.151 C 195.600 149.345,195.062 149.726,194.405 149.998 C 193.748 150.270,193.296 150.631,193.400 150.800 C 193.504 150.969,193.052 151.330,192.395 151.602 C 191.738 151.874,191.200 152.255,191.200 152.449 C 191.200 152.642,190.964 152.800,190.675 152.800 C 190.387 152.800,189.764 153.160,189.292 153.600 C 188.820 154.040,188.291 154.400,188.117 154.401 C 187.943 154.401,187.170 154.941,186.400 155.600 C 185.630 156.259,184.775 156.799,184.500 156.799 C 184.225 156.800,184.000 156.980,184.000 157.200 C 184.000 157.420,183.811 157.600,183.581 157.600 C 183.350 157.600,182.177 158.230,180.973 159.000 C 179.769 159.770,178.608 160.400,178.392 160.400 C 178.177 160.400,178.000 160.580,178.000 160.800 C 178.000 161.020,177.719 161.200,177.376 161.200 C 177.033 161.200,176.864 161.380,177.000 161.600 C 177.136 161.820,176.943 162.000,176.571 162.000 C 176.198 162.000,175.603 162.316,175.247 162.703 C 174.891 163.089,174.105 163.660,173.500 163.970 C 172.895 164.281,172.400 164.685,172.400 164.868 C 172.400 165.050,172.040 165.200,171.600 165.200 C 171.160 165.200,170.800 165.380,170.800 165.600 C 170.800 165.820,170.522 166.000,170.182 166.000 C 169.842 166.000,169.110 166.453,168.556 167.008 C 168.002 167.562,167.335 167.893,167.074 167.744 C 166.813 167.594,166.736 167.622,166.903 167.806 C 167.294 168.237,165.186 169.632,164.625 169.313 C 164.391 169.180,164.332 169.218,164.494 169.396 C 164.848 169.788,163.645 170.769,162.788 170.787 C 162.452 170.794,161.917 171.160,161.600 171.600 C 161.283 172.040,160.793 172.400,160.512 172.400 C 160.230 172.400,160.000 172.580,160.000 172.800 C 160.000 173.020,159.719 173.200,159.376 173.200 C 159.033 173.200,158.864 173.380,159.000 173.600 C 159.136 173.820,158.916 174.000,158.512 174.000 C 158.107 174.000,157.524 174.350,157.215 174.779 C 156.907 175.207,156.530 175.481,156.379 175.387 C 156.227 175.293,155.692 175.573,155.190 176.008 C 154.333 176.752,153.860 176.935,153.408 176.700 C 153.302 176.645,152.932 177.005,152.585 177.500 C 152.238 177.995,151.645 178.400,151.266 178.400 C 150.887 178.400,150.317 178.760,150.000 179.200 C 149.683 179.640,149.103 180.000,148.712 180.000 C 148.320 180.000,148.000 180.136,148.000 180.302 C 148.000 180.469,147.459 180.844,146.798 181.137 C 146.136 181.430,145.677 181.801,145.776 181.962 C 145.876 182.123,145.334 182.480,144.572 182.755 C 143.811 183.031,143.291 183.424,143.417 183.628 C 143.544 183.833,143.401 184.000,143.099 184.000 C 142.798 184.000,142.202 184.315,141.775 184.700 C 141.349 185.085,140.505 185.655,139.900 185.968 C 139.295 186.280,138.800 186.685,138.800 186.868 C 138.800 187.050,138.564 187.200,138.275 187.200 C 137.987 187.200,137.364 187.560,136.892 188.000 C 136.420 188.440,135.796 188.800,135.505 188.800 C 135.214 188.800,134.717 189.160,134.400 189.600 C 134.083 190.040,133.569 190.400,133.259 190.400 C 132.948 190.400,132.403 190.717,132.047 191.106 C 131.691 191.494,130.680 192.169,129.800 192.606 C 128.920 193.042,128.110 193.499,128.000 193.619 C 127.448 194.224,125.215 195.600,124.785 195.600 C 124.515 195.600,123.991 195.949,123.622 196.375 C 123.252 196.801,122.691 197.206,122.375 197.275 C 122.059 197.344,121.565 197.715,121.277 198.100 C 120.990 198.485,120.471 198.800,120.124 198.800 C 119.778 198.800,119.191 199.149,118.822 199.575 C 118.452 200.001,117.899 200.406,117.593 200.475 C 117.287 200.544,116.612 201.008,116.092 201.508 C 115.573 202.007,114.952 202.294,114.712 202.146 C 114.451 201.985,114.391 202.062,114.562 202.338 C 114.731 202.612,114.593 202.800,114.224 202.800 C 113.881 202.800,113.600 202.980,113.600 203.200 C 113.600 203.420,113.306 203.600,112.947 203.600 C 112.588 203.600,112.003 203.916,111.647 204.303 C 111.291 204.689,110.511 205.256,109.914 205.563 C 109.316 205.870,108.922 206.273,109.037 206.460 C 109.153 206.647,108.916 206.800,108.512 206.800 C 108.107 206.800,107.517 207.160,107.200 207.600 C 106.883 208.040,106.303 208.400,105.912 208.400 C 105.520 208.400,105.200 208.591,105.200 208.824 C 105.200 209.057,105.039 209.148,104.842 209.026 C 104.645 208.904,104.376 209.085,104.245 209.428 C 104.113 209.770,103.836 209.946,103.629 209.818 C 103.421 209.690,102.789 210.048,102.222 210.614 C 101.656 211.180,101.015 211.533,100.797 211.398 C 100.578 211.263,100.400 211.343,100.400 211.576 C 100.400 211.809,100.130 212.000,99.800 212.000 C 99.470 212.000,99.200 212.180,99.200 212.400 C 99.200 212.620,98.930 212.800,98.600 212.800 C 98.270 212.800,98.000 212.936,98.000 213.102 C 98.000 213.269,97.459 213.644,96.798 213.937 C 96.136 214.230,95.697 214.634,95.821 214.835 C 95.946 215.036,95.722 215.200,95.324 215.200 C 94.926 215.201,94.120 215.606,93.534 216.100 C 92.947 216.595,92.090 217.315,91.629 217.700 C 91.168 218.085,90.613 218.400,90.395 218.400 C 90.178 218.400,90.000 218.580,90.000 218.800 C 90.000 219.020,89.730 219.200,89.400 219.200 C 89.070 219.200,88.800 219.380,88.800 219.600 C 88.800 219.820,88.480 220.000,88.088 220.000 C 87.697 220.000,87.117 220.360,86.800 220.800 C 86.483 221.240,85.943 221.600,85.600 221.600 C 85.257 221.600,84.717 221.960,84.400 222.400 C 84.083 222.840,83.543 223.200,83.200 223.200 C 82.857 223.200,82.317 223.560,82.000 224.000 C 81.683 224.440,81.131 224.800,80.774 224.800 C 80.416 224.800,79.802 225.156,79.409 225.591 C 79.015 226.025,78.556 226.296,78.388 226.193 C 78.221 226.089,77.976 226.285,77.845 226.628 C 77.713 226.970,77.452 227.156,77.263 227.039 C 77.075 226.923,76.541 227.181,76.077 227.614 C 75.613 228.046,75.038 228.400,74.799 228.400 C 74.559 228.400,73.910 228.853,73.356 229.408 C 72.802 229.962,72.213 230.331,72.047 230.229 C 71.881 230.127,71.493 230.393,71.185 230.821 C 70.876 231.250,70.346 231.600,70.008 231.600 C 69.669 231.600,69.168 231.960,68.893 232.400 C 68.618 232.840,68.074 233.200,67.685 233.200 C 67.295 233.200,66.717 233.560,66.400 234.000 C 66.083 234.440,65.543 234.800,65.200 234.800 C 64.857 234.800,64.317 235.160,64.000 235.600 C 63.683 236.040,63.169 236.400,62.859 236.400 C 62.548 236.400,62.003 236.716,61.647 237.103 C 61.291 237.489,60.511 238.056,59.914 238.363 C 59.316 238.670,58.922 239.073,59.037 239.260 C 59.153 239.447,58.916 239.600,58.512 239.600 C 58.107 239.600,57.517 239.960,57.200 240.400 C 56.883 240.840,56.343 241.200,56.000 241.200 C 55.657 241.200,55.124 241.550,54.815 241.979 C 54.507 242.407,54.099 242.661,53.910 242.544 C 53.720 242.427,52.943 242.806,52.183 243.386 C 51.422 243.966,50.795 244.297,50.788 244.120 C 50.781 243.944,50.590 244.119,50.363 244.508 C 50.136 244.898,49.801 245.124,49.617 245.011 C 49.434 244.897,49.196 245.035,49.088 245.316 C 48.980 245.597,48.153 246.181,47.250 246.613 C 46.348 247.046,45.607 247.535,45.605 247.700 C 45.602 247.865,45.364 248.000,45.075 248.000 C 44.787 248.000,44.164 248.360,43.692 248.800 C 43.220 249.240,42.686 249.600,42.505 249.600 C 42.324 249.600,41.917 249.960,41.600 250.400 C 41.283 250.840,40.743 251.200,40.400 251.200 C 40.057 251.200,39.517 251.560,39.200 252.000 C 38.883 252.440,38.343 252.800,38.000 252.800 C 37.657 252.800,37.117 253.160,36.800 253.600 C 36.483 254.040,36.021 254.400,35.774 254.400 C 35.526 254.400,34.998 254.760,34.600 255.200 C 34.202 255.640,33.668 256.000,33.413 256.000 C 33.159 256.000,32.593 256.315,32.155 256.700 C 31.111 257.618,29.728 258.400,29.147 258.400 C 28.891 258.400,27.914 259.030,26.974 259.800 C 26.034 260.570,24.970 261.200,24.609 261.200 C 24.248 261.200,24.064 261.380,24.200 261.600 C 24.336 261.820,24.182 262.000,23.857 262.000 C 23.532 262.000,23.207 262.166,23.133 262.370 C 23.060 262.573,22.738 262.798,22.418 262.870 C 22.098 262.941,21.412 263.408,20.892 263.908 C 20.373 264.407,19.752 264.694,19.512 264.546 C 19.251 264.385,19.191 264.462,19.362 264.738 C 19.528 265.008,19.401 265.200,19.057 265.200 C 18.732 265.200,18.407 265.366,18.333 265.570 C 18.260 265.773,17.930 265.998,17.600 266.070 C 17.270 266.141,16.709 266.515,16.353 266.900 C 15.997 267.285,15.382 267.600,14.986 267.600 C 14.591 267.600,14.384 267.717,14.527 267.860 C 14.863 268.196,13.586 269.171,12.788 269.187 C 12.452 269.194,11.917 269.560,11.600 270.000 C 11.283 270.440,10.780 270.800,10.483 270.800 C 9.806 270.800,8.753 271.819,9.086 272.152 C 9.222 272.289,8.933 272.400,8.443 272.400 C 7.951 272.400,7.663 272.579,7.800 272.800 C 7.936 273.020,7.806 273.200,7.512 273.200 C 7.217 273.200,6.717 273.560,6.400 274.000 C 6.083 274.440,5.585 274.800,5.294 274.800 C 4.678 274.800,2.800 276.577,2.800 277.159 C 2.800 277.377,2.469 277.790,2.064 278.077 C 0.317 279.318,1.075 285.600,2.971 285.600 C 3.317 285.600,3.600 285.743,3.600 285.918 C 3.600 286.093,4.275 286.281,5.100 286.336 C 5.925 286.390,6.662 286.614,6.739 286.834 C 6.910 287.327,18.306 287.274,18.479 286.779 C 18.546 286.589,20.985 286.408,23.900 286.375 C 26.815 286.343,29.200 286.156,29.200 285.958 C 29.200 285.761,31.525 285.600,34.367 285.600 C 37.208 285.600,39.593 285.432,39.667 285.227 C 39.794 284.870,43.765 284.606,55.700 284.162 C 58.752 284.049,61.200 283.789,61.200 283.579 C 61.200 283.360,63.393 283.200,66.400 283.200 C 69.600 283.200,71.600 283.046,71.600 282.800 C 71.600 282.553,73.667 282.400,77.000 282.400 C 80.333 282.400,82.400 282.247,82.400 282.000 C 82.400 281.754,84.392 281.600,87.576 281.600 C 90.596 281.600,92.856 281.433,93.000 281.200 C 93.144 280.967,95.404 280.800,98.424 280.800 C 101.608 280.800,103.600 280.646,103.600 280.400 C 103.600 280.154,105.592 280.000,108.776 280.000 C 111.796 280.000,114.056 279.833,114.200 279.600 C 114.538 279.053,142.262 279.053,142.600 279.600 C 143.303 280.738,147.425 280.040,147.916 278.700 C 148.365 277.472,153.173 270.836,155.521 268.202 C 156.114 267.537,157.590 265.824,158.800 264.397 C 161.613 261.080,163.175 259.324,166.425 255.826 C 167.869 254.272,169.939 252.016,171.025 250.813 C 172.111 249.611,175.160 246.374,177.800 243.620 C 180.440 240.866,184.130 237.009,186.000 235.048 C 190.048 230.802,190.754 230.086,211.857 208.800 C 237.527 182.908,272.058 148.871,289.575 132.194 C 291.652 130.217,294.356 127.610,295.586 126.400 C 298.900 123.138,318.047 104.688,328.800 94.394 C 368.336 56.546,380.150 45.449,380.330 45.989 C 380.422 46.266,380.341 46.607,380.149 46.746 C 379.557 47.177,376.400 51.126,376.400 51.435 C 376.400 51.596,377.095 51.024,377.945 50.164 C 378.794 49.304,379.900 48.240,380.403 47.800 L 381.316 47.000 380.880 47.800 C 380.640 48.240,379.883 49.230,379.199 50.000 C 376.028 53.569,376.595 53.403,380.223 49.700 C 382.432 47.445,384.463 45.600,384.736 45.600 C 385.084 45.600,385.110 45.748,384.822 46.100 C 384.596 46.375,381.711 50.110,378.409 54.400 C 372.134 62.554,369.513 65.935,362.705 74.660 C 360.447 77.553,354.100 85.721,348.600 92.811 C 343.100 99.901,338.330 106.022,338.000 106.413 C 337.670 106.804,335.150 110.049,332.400 113.624 C 329.650 117.200,326.590 121.163,325.600 122.431 C 322.911 125.877,315.683 135.191,308.396 144.600 C 306.863 146.580,304.391 149.759,302.904 151.664 C 299.526 155.991,291.975 165.717,289.653 168.732 C 288.692 169.979,287.387 171.630,286.754 172.400 C 286.121 173.170,284.837 174.812,283.901 176.048 C 282.966 177.285,279.412 181.875,276.003 186.248 C 272.595 190.622,269.252 194.920,268.574 195.800 C 267.896 196.680,264.654 200.841,261.371 205.046 C 258.087 209.252,254.950 213.285,254.400 214.010 C 253.850 214.734,252.535 216.424,251.477 217.764 C 250.420 219.104,249.250 220.596,248.877 221.080 C 244.140 227.232,240.534 231.880,238.400 234.581 C 236.970 236.391,235.401 238.396,234.914 239.036 C 233.682 240.654,222.134 255.533,220.971 257.000 C 218.108 260.612,207.217 274.627,205.274 277.200 C 204.028 278.850,202.696 280.545,202.313 280.966 C 200.595 282.858,199.449 284.980,199.103 286.910 C 198.394 290.868,198.314 290.716,201.600 291.615 C 204.643 292.448,206.166 292.898,207.000 293.210 C 207.440 293.374,208.610 293.730,209.600 294.000 C 210.590 294.270,211.760 294.629,212.200 294.798 C 212.640 294.967,214.350 295.519,216.000 296.024 C 217.650 296.530,219.171 297.092,219.380 297.272 C 219.589 297.452,220.086 297.600,220.485 297.600 C 220.884 297.600,221.523 297.768,221.905 297.973 C 222.287 298.178,225.390 299.374,228.800 300.630 C 232.210 301.887,235.201 302.989,235.446 303.080 C 235.691 303.170,236.092 303.684,236.337 304.222 C 236.596 304.790,237.122 305.200,237.591 305.200 C 238.036 305.200,238.400 305.342,238.400 305.515 C 238.400 305.688,238.789 305.859,239.264 305.895 C 239.739 305.931,240.276 306.194,240.458 306.480 C 240.639 306.766,240.791 306.860,240.794 306.690 C 240.797 306.519,241.345 306.661,242.012 307.006 C 242.678 307.351,243.398 307.525,243.612 307.393 C 243.825 307.261,244.000 307.343,244.000 307.576 C 244.000 307.809,244.461 308.000,245.024 308.000 C 245.604 308.000,245.940 308.173,245.800 308.400 C 245.664 308.620,245.923 308.800,246.376 308.800 C 246.829 308.800,247.200 308.980,247.200 309.200 C 247.200 309.420,247.740 309.600,248.400 309.600 C 249.060 309.600,249.600 309.780,249.600 310.000 C 249.600 310.220,249.960 310.400,250.400 310.400 C 250.840 310.400,251.200 310.580,251.200 310.800 C 251.200 311.020,251.560 311.200,252.000 311.200 C 252.440 311.200,252.800 311.380,252.800 311.600 C 252.800 311.820,253.149 312.000,253.576 312.000 C 254.003 312.000,254.464 312.180,254.600 312.400 C 254.736 312.620,255.287 312.800,255.824 312.800 C 256.361 312.800,256.800 312.980,256.800 313.200 C 256.800 313.420,257.160 313.600,257.600 313.600 C 258.040 313.600,258.400 313.780,258.400 314.000 C 258.400 314.220,258.771 314.400,259.224 314.400 C 259.677 314.400,259.936 314.580,259.800 314.800 C 259.660 315.027,259.996 315.200,260.576 315.200 C 261.139 315.200,261.601 315.335,261.601 315.500 C 261.602 315.665,262.592 316.250,263.800 316.800 C 265.008 317.350,265.998 317.935,265.999 318.100 C 265.999 318.265,266.360 318.400,266.800 318.400 C 267.240 318.400,267.600 318.580,267.600 318.800 C 267.600 319.020,267.960 319.200,268.400 319.200 C 268.840 319.200,269.200 319.380,269.200 319.600 C 269.200 319.820,269.560 320.000,270.000 320.000 C 270.440 320.000,270.800 320.191,270.800 320.424 C 270.800 320.657,270.965 320.745,271.168 320.620 C 271.370 320.495,271.807 320.664,272.139 320.996 C 272.471 321.328,272.938 321.600,273.177 321.600 C 273.624 321.600,275.245 322.422,275.600 322.829 C 275.777 323.032,277.061 323.644,277.600 323.782 C 277.710 323.810,278.376 324.141,279.080 324.517 C 279.784 324.893,280.639 325.200,280.980 325.200 C 281.321 325.200,281.600 325.380,281.600 325.600 C 281.600 325.820,281.960 326.000,282.400 326.000 C 282.840 326.000,283.200 326.180,283.200 326.400 C 283.200 326.620,283.560 326.800,284.000 326.800 C 284.440 326.800,284.800 326.980,284.800 327.200 C 284.800 327.420,285.160 327.600,285.600 327.600 C 286.040 327.600,286.400 327.780,286.400 328.000 C 286.400 328.220,286.760 328.400,287.200 328.400 C 287.640 328.400,288.000 328.580,288.000 328.800 C 288.000 329.020,288.360 329.200,288.800 329.200 C 289.240 329.200,289.600 329.380,289.600 329.600 C 289.600 329.820,289.945 330.000,290.367 330.000 C 290.788 330.000,291.193 330.142,291.267 330.315 C 291.455 330.760,295.200 332.893,295.200 332.555 C 295.200 332.401,295.560 332.602,296.000 333.000 C 296.440 333.398,296.803 333.561,296.806 333.362 C 296.809 333.163,296.944 333.184,297.106 333.410 C 297.268 333.635,298.255 334.265,299.300 334.809 C 300.345 335.353,301.200 335.934,301.200 336.099 C 301.200 336.265,301.661 336.400,302.224 336.400 C 302.804 336.400,303.140 336.573,303.000 336.800 C 302.864 337.020,303.036 337.200,303.382 337.200 C 304.078 337.200,305.655 338.000,306.060 338.558 C 306.202 338.755,306.607 338.806,306.960 338.671 C 307.375 338.512,307.600 338.640,307.600 339.036 C 307.600 339.372,307.765 339.545,307.968 339.420 C 308.170 339.295,308.620 339.477,308.968 339.825 C 309.315 340.173,309.600 340.350,309.600 340.219 C 309.600 340.089,310.019 340.256,310.532 340.592 C 311.044 340.928,311.584 341.082,311.732 340.935 C 311.879 340.787,312.000 340.877,312.000 341.133 C 312.000 341.390,312.234 341.600,312.520 341.600 C 313.256 341.600,315.193 342.541,315.197 342.900 C 315.199 343.065,315.434 343.200,315.720 343.200 C 316.456 343.200,318.393 344.141,318.397 344.500 C 318.399 344.665,318.760 344.800,319.200 344.800 C 319.640 344.800,320.000 344.980,320.000 345.200 C 320.000 345.420,320.360 345.600,320.800 345.600 C 321.240 345.600,321.600 345.780,321.600 346.000 C 321.600 346.220,321.960 346.400,322.400 346.400 C 322.840 346.400,323.200 346.580,323.200 346.800 C 323.200 347.020,323.560 347.200,324.000 347.200 C 324.440 347.200,324.800 347.346,324.800 347.525 C 324.800 347.704,325.430 348.098,326.200 348.400 C 326.970 348.702,327.600 349.096,327.600 349.275 C 327.600 349.454,327.960 349.600,328.400 349.600 C 328.840 349.600,329.200 349.780,329.200 350.000 C 329.200 350.220,329.434 350.400,329.720 350.400 C 330.456 350.400,332.393 351.341,332.397 351.700 C 332.399 351.865,332.760 352.000,333.200 352.000 C 333.640 352.000,334.000 352.180,334.000 352.400 C 334.000 352.620,334.360 352.800,334.800 352.800 C 335.240 352.800,335.600 352.980,335.600 353.200 C 335.600 353.420,335.960 353.600,336.400 353.600 C 336.840 353.600,337.200 353.780,337.200 354.000 C 337.200 354.220,337.560 354.400,338.000 354.400 C 338.440 354.400,338.800 354.580,338.800 354.800 C 338.800 355.020,339.160 355.200,339.600 355.200 C 340.040 355.200,340.400 355.380,340.400 355.600 C 340.400 355.820,340.672 356.000,341.005 356.000 C 341.678 356.000,343.259 356.806,343.655 357.351 C 343.796 357.544,344.111 357.579,344.355 357.428 C 344.600 357.276,344.800 357.343,344.800 357.576 C 344.800 357.809,345.160 358.000,345.600 358.000 C 346.040 358.000,346.400 358.180,346.400 358.400 C 346.400 358.620,346.760 358.800,347.200 358.800 C 347.640 358.800,348.000 358.980,348.000 359.200 C 348.000 359.420,348.360 359.600,348.800 359.600 C 349.240 359.600,349.600 359.780,349.600 360.000 C 349.600 360.220,349.960 360.400,350.400 360.400 C 350.840 360.400,351.200 360.580,351.200 360.800 C 351.200 361.020,351.481 361.200,351.824 361.200 C 352.167 361.200,352.336 361.380,352.200 361.600 C 352.064 361.820,352.323 362.000,352.776 362.000 C 353.229 362.000,353.600 362.180,353.600 362.400 C 353.600 362.620,354.050 362.800,354.600 362.800 C 355.150 362.800,355.600 362.980,355.600 363.200 C 355.600 363.420,355.924 363.600,356.320 363.600 C 356.716 363.600,357.211 363.765,357.420 363.967 C 358.109 364.632,362.312 366.800,362.913 366.800 C 363.237 366.800,363.724 367.068,363.996 367.396 C 364.268 367.723,364.650 367.893,364.845 367.772 C 365.040 367.651,365.200 367.743,365.200 367.976 C 365.200 368.209,365.549 368.400,365.976 368.400 C 366.403 368.400,366.864 368.580,367.000 368.800 C 367.136 369.020,367.676 369.200,368.200 369.200 C 368.724 369.200,369.264 369.380,369.400 369.600 C 369.536 369.820,370.627 370.000,371.824 370.000 C 373.021 370.000,374.000 370.180,374.000 370.400 C 374.000 370.915,376.690 370.926,376.867 370.412 C 376.940 370.199,378.035 369.991,379.300 369.951 C 380.565 369.910,381.600 369.724,381.600 369.538 C 381.600 369.352,381.870 369.200,382.200 369.200 C 382.530 369.200,382.800 369.064,382.800 368.898 C 382.800 368.731,383.338 368.357,383.996 368.066 C 385.386 367.451,388.862 364.195,388.507 363.840 C 388.375 363.708,388.586 363.600,388.976 363.600 C 389.437 363.600,389.606 363.393,389.459 363.011 C 389.335 362.685,389.540 362.242,389.917 362.023 C 390.292 361.804,390.444 361.619,390.254 361.612 C 390.064 361.605,390.215 361.132,390.590 360.559 C 390.965 359.987,391.183 359.177,391.073 358.759 C 390.964 358.342,391.038 358.000,391.237 358.000 C 391.437 358.000,391.600 357.381,391.600 356.624 C 391.600 355.867,391.780 355.136,392.000 355.000 C 392.252 354.844,392.400 350.470,392.400 343.200 C 392.400 335.930,392.548 331.556,392.800 331.400 C 393.057 331.241,393.200 324.796,393.200 313.376 C 393.200 301.792,393.339 295.600,393.600 295.600 C 393.861 295.600,394.000 289.475,394.000 278.024 C 394.000 266.737,394.143 260.359,394.400 260.200 C 394.657 260.041,394.800 253.729,394.800 242.576 C 394.800 231.259,394.939 225.200,395.200 225.200 C 395.461 225.200,395.600 219.000,395.600 207.400 C 395.600 195.800,395.739 189.600,396.000 189.600 C 396.261 189.600,396.400 183.467,396.400 172.000 C 396.400 161.014,396.544 154.400,396.784 154.400 C 397.024 154.400,397.177 147.662,397.191 136.500 C 397.206 125.156,397.358 118.551,397.607 118.467 C 397.856 118.382,398.000 111.836,398.000 100.543 C 398.000 89.271,398.141 82.840,398.384 82.990 C 398.628 83.141,398.777 76.666,398.792 65.333 C 398.805 55.491,398.947 47.339,399.108 47.219 C 399.573 46.870,399.639 46.000,399.200 46.000 C 398.963 46.000,398.800 44.533,398.800 42.400 C 398.800 40.267,398.637 38.800,398.400 38.800 C 398.180 38.800,398.000 38.361,398.000 37.824 C 398.000 37.287,397.820 36.736,397.600 36.600 C 397.380 36.464,397.200 36.003,397.200 35.576 C 397.200 35.149,397.020 34.800,396.800 34.800 C 396.580 34.800,396.400 34.429,396.400 33.976 C 396.400 33.523,396.220 33.264,396.000 33.400 C 395.780 33.536,395.600 33.451,395.600 33.210 C 395.600 32.970,394.970 32.143,394.200 31.373 C 393.430 30.603,392.800 30.059,392.800 30.165 C 392.800 30.270,391.855 29.938,390.700 29.428 C 388.522 28.465,382.400 28.024,382.400 28.830 M365.950 61.319 C 361.868 65.324,360.164 67.070,362.164 65.200 C 371.180 56.770,373.682 54.348,373.532 54.199 C 373.444 54.111,370.032 57.315,365.950 61.319 M375.600 54.325 C 375.600 54.503,375.280 54.998,374.889 55.425 C 373.960 56.438,372.298 58.800,372.514 58.800 C 372.606 58.800,373.530 57.720,374.568 56.400 C 375.605 55.080,376.261 54.000,376.027 54.000 C 375.792 54.000,375.600 54.146,375.600 54.325 M369.091 62.842 C 367.602 64.799,366.467 66.400,366.570 66.400 C 366.859 66.400,372.115 59.581,371.948 59.423 C 371.867 59.346,370.581 60.885,369.091 62.842 M364.733 68.500 C 361.827 72.121,360.617 73.759,361.039 73.499 C 361.550 73.184,366.538 66.800,366.274 66.800 C 366.176 66.800,365.483 67.565,364.733 68.500 M354.183 72.351 C 352.212 74.286,344.120 82.058,336.200 89.623 C 321.953 103.231,297.877 126.400,281.212 142.540 C 265.469 157.787,231.343 191.398,231.453 191.548 C 231.586 191.728,230.102 193.164,246.076 177.400 C 253.433 170.140,263.040 160.716,267.426 156.457 C 271.812 152.199,278.460 145.719,282.201 142.057 C 289.096 135.308,304.992 119.966,312.968 112.364 C 315.370 110.074,318.266 107.300,319.403 106.200 C 327.967 97.914,332.504 93.552,340.003 86.395 C 344.731 81.882,349.938 76.932,351.574 75.395 C 356.373 70.885,358.087 69.154,357.921 68.988 C 357.836 68.902,356.153 70.415,354.183 72.351 M359.944 74.700 C 358.793 76.089,358.306 76.800,358.504 76.800 C 358.614 76.800,359.186 76.170,359.773 75.400 C 360.863 73.971,360.995 73.432,359.944 74.700 M355.152 80.755 C 349.197 88.504,346.805 91.724,347.989 90.400 C 348.678 89.630,349.997 88.011,350.921 86.803 C 351.844 85.595,353.839 83.024,355.354 81.090 C 356.868 79.156,358.038 77.515,357.954 77.443 C 357.869 77.370,356.609 78.861,355.152 80.755 M345.944 92.700 C 344.675 94.232,344.219 94.942,344.681 94.665 C 345.193 94.358,346.969 92.000,346.689 92.000 C 346.598 92.000,346.263 92.315,345.944 92.700 M341.119 98.900 C 340.362 99.835,338.842 101.770,337.742 103.200 C 336.641 104.630,334.498 107.411,332.979 109.380 C 331.461 111.349,330.414 112.838,330.654 112.690 C 330.894 112.542,332.227 110.931,333.617 109.110 C 338.100 103.237,340.113 100.636,341.519 98.900 C 342.277 97.965,342.806 97.200,342.696 97.200 C 342.586 97.200,341.877 97.965,341.119 98.900 M327.944 115.900 C 326.793 117.289,326.306 118.000,326.504 118.000 C 326.614 118.000,327.186 117.370,327.773 116.600 C 328.863 115.171,328.995 114.632,327.944 115.900 M324.000 120.725 C 324.000 120.903,323.680 121.398,323.289 121.825 C 322.253 122.955,320.689 125.227,320.856 125.360 C 320.935 125.423,321.859 124.333,322.909 122.937 C 323.960 121.542,324.635 120.400,324.409 120.400 C 324.184 120.400,324.000 120.546,324.000 120.725 M317.000 129.869 C 312.322 135.982,312.175 136.186,312.654 135.890 C 313.228 135.536,320.514 125.978,320.337 125.813 C 320.262 125.743,318.760 127.568,317.000 129.869 M308.986 140.178 C 308.774 140.475,308.183 141.276,307.673 141.959 C 307.163 142.641,306.833 143.200,306.939 143.200 C 307.253 143.200,309.712 139.979,309.534 139.801 C 309.445 139.711,309.198 139.881,308.986 140.178 M305.893 144.100 C 305.787 144.375,304.544 146.040,303.131 147.800 C 300.015 151.681,297.820 154.722,299.252 153.175 C 299.773 152.611,300.650 151.544,301.200 150.803 C 302.218 149.433,302.671 148.857,305.369 145.500 C 306.209 144.455,306.714 143.600,306.491 143.600 C 306.268 143.600,305.999 143.825,305.893 144.100 M294.977 158.300 C 292.817 161.000,292.676 161.200,292.928 161.200 C 293.052 161.200,293.984 160.120,295.000 158.800 C 297.187 155.958,297.168 155.560,294.977 158.300 M291.400 162.782 C 290.960 163.426,289.191 165.809,287.470 168.077 C 285.748 170.345,284.890 171.580,285.563 170.823 C 287.656 168.468,292.830 161.600,292.507 161.605 C 292.338 161.608,291.840 162.138,291.400 162.782 M283.335 173.300 C 281.955 174.844,278.620 179.358,279.060 179.087 C 279.531 178.796,284.538 172.400,284.295 172.400 C 284.210 172.400,283.778 172.805,283.335 173.300 M277.317 180.905 C 276.831 181.617,276.051 182.695,275.583 183.300 C 275.116 183.905,274.812 184.400,274.908 184.400 C 275.004 184.400,275.930 183.320,276.968 182.000 C 278.005 180.680,278.706 179.602,278.527 179.605 C 278.347 179.608,277.802 180.193,277.317 180.905 M273.315 186.105 C 272.828 186.817,271.568 188.497,270.515 189.838 C 267.029 194.275,264.720 197.421,265.991 196.000 C 266.679 195.230,268.342 193.160,269.687 191.400 C 271.031 189.640,272.753 187.435,273.513 186.500 C 274.274 185.565,274.740 184.802,274.548 184.805 C 274.357 184.808,273.802 185.393,273.315 186.105 M227.661 195.055 C 226.925 195.825,226.396 196.530,226.487 196.620 C 226.578 196.711,227.352 196.069,228.207 195.193 C 229.063 194.317,229.591 193.612,229.381 193.627 C 229.172 193.643,228.397 194.285,227.661 195.055 M207.414 215.500 L 189.894 233.400 207.581 215.667 C 217.308 205.913,225.192 197.858,225.100 197.767 C 225.008 197.675,217.049 205.655,207.414 215.500 M262.977 199.500 C 260.919 202.073,260.432 202.907,261.985 201.200 C 263.453 199.586,264.937 197.600,264.675 197.600 C 264.577 197.600,263.812 198.455,262.977 199.500 M259.296 204.205 C 258.132 206.003,258.400 206.000,259.773 204.200 C 260.360 203.430,260.697 202.802,260.520 202.805 C 260.344 202.808,259.793 203.438,259.296 204.205 M257.032 207.113 L 256.264 208.200 257.332 207.230 C 258.454 206.211,258.593 205.992,258.100 206.013 C 257.935 206.019,257.454 206.514,257.032 207.113 M254.800 210.100 C 253.136 212.221,252.705 212.964,253.920 211.619 C 255.077 210.339,256.507 208.400,256.294 208.400 C 256.206 208.400,255.534 209.165,254.800 210.100 M250.200 216.000 C 249.184 217.320,248.443 218.400,248.553 218.400 C 248.663 218.400,249.584 217.320,250.600 216.000 C 251.616 214.680,252.357 213.600,252.247 213.600 C 252.137 213.600,251.216 214.680,250.200 216.000 M243.544 224.700 C 242.393 226.089,241.906 226.800,242.104 226.800 C 242.214 226.800,242.786 226.170,243.373 225.400 C 244.463 223.971,244.595 223.432,243.544 224.700 M239.532 229.900 C 237.716 232.049,235.857 234.521,236.221 234.302 C 236.702 234.014,240.540 229.200,240.289 229.200 C 240.198 229.200,239.858 229.515,239.532 229.900 M185.393 238.100 L 181.000 242.600 185.500 238.207 C 187.975 235.791,190.000 233.766,190.000 233.707 C 190.000 233.418,189.474 233.920,185.393 238.100 M235.144 235.500 C 233.993 236.889,233.506 237.600,233.704 237.600 C 233.814 237.600,234.386 236.970,234.973 236.200 C 236.063 234.771,236.195 234.232,235.144 235.500 M176.791 247.100 L 173.400 250.600 176.900 247.209 C 180.151 244.059,180.582 243.600,180.291 243.600 C 180.231 243.600,178.656 245.175,176.791 247.100 M170.575 253.700 L 169.400 255.000 170.700 253.825 C 171.912 252.730,172.184 252.400,171.875 252.400 C 171.806 252.400,171.221 252.985,170.575 253.700 M220.575 254.268 C 219.959 255.076,219.659 255.611,219.909 255.456 C 220.421 255.140,222.153 252.800,221.875 252.800 C 221.776 252.800,221.191 253.461,220.575 254.268 M165.975 258.700 C 163.522 261.297,162.226 262.800,162.439 262.800 C 162.537 262.800,163.840 261.450,165.334 259.800 C 168.348 256.472,168.781 255.729,165.975 258.700 M159.775 265.700 L 158.600 267.000 159.900 265.825 C 161.112 264.730,161.384 264.400,161.075 264.400 C 161.006 264.400,160.421 264.985,159.775 265.700 " stroke="none" fill="#2563EB" fill-rule="evenodd"></path><path id="path1" d="M196.261 291.900 C 196.127 292.725,195.832 294.210,195.606 295.200 C 195.380 296.190,195.008 297.900,194.780 299.000 C 194.552 300.100,194.193 301.765,193.983 302.700 C 193.149 306.406,192.755 308.253,192.555 309.400 C 192.440 310.060,192.190 310.960,192.000 311.400 C 191.810 311.840,191.563 312.740,191.452 313.400 C 191.340 314.060,191.058 315.365,190.825 316.300 C 190.591 317.235,190.220 318.720,190.000 319.600 C 189.780 320.480,189.420 321.920,189.200 322.800 C 188.980 323.680,188.628 325.075,188.418 325.900 C 188.208 326.725,187.924 327.940,187.788 328.600 C 187.651 329.260,187.387 330.160,187.200 330.600 C 187.013 331.040,186.769 331.850,186.658 332.400 C 186.547 332.950,186.263 334.075,186.028 334.900 C 185.793 335.725,185.420 337.030,185.200 337.800 C 184.980 338.570,184.638 339.785,184.440 340.500 C 179.463 358.468,173.947 369.796,169.797 370.574 C 167.914 370.927,168.022 371.600,169.962 371.600 C 171.590 371.600,174.532 370.306,175.647 369.100 C 176.003 368.715,176.508 368.400,176.769 368.400 C 177.030 368.400,178.304 367.320,179.600 366.000 C 180.896 364.680,182.141 363.600,182.367 363.600 C 182.963 363.600,196.400 350.163,196.400 349.567 C 196.400 349.292,196.509 349.176,196.642 349.309 C 196.943 349.610,198.800 347.797,198.800 347.203 C 198.800 346.965,200.870 344.725,203.400 342.225 C 205.930 339.726,208.000 337.475,208.000 337.225 C 208.000 336.974,209.620 335.163,211.600 333.200 C 213.580 331.237,215.200 329.440,215.200 329.207 C 215.200 328.974,216.451 327.527,217.981 325.992 C 219.510 324.456,220.645 323.200,220.503 323.200 C 220.360 323.200,220.931 322.570,221.772 321.800 C 222.613 321.030,223.190 320.400,223.054 320.400 C 222.918 320.400,223.346 319.886,224.004 319.257 C 224.662 318.628,225.200 317.897,225.200 317.633 C 225.200 317.369,225.380 317.264,225.600 317.400 C 225.820 317.536,226.000 317.357,226.000 317.001 C 226.000 316.646,227.080 315.296,228.400 314.000 C 229.720 312.704,230.800 311.435,230.800 311.179 C 230.800 310.924,231.798 309.778,233.018 308.634 C 236.475 305.391,236.989 303.200,234.292 303.200 C 233.937 303.200,233.549 303.041,233.430 302.848 C 233.310 302.654,232.804 302.403,232.306 302.289 C 231.808 302.175,229.330 301.327,226.800 300.405 C 220.716 298.186,214.102 295.930,210.400 294.811 C 208.750 294.312,206.950 293.766,206.400 293.598 C 205.850 293.430,204.590 293.074,203.600 292.807 C 202.610 292.540,201.487 292.160,201.105 291.961 C 200.723 291.762,200.093 291.594,199.705 291.587 C 199.317 291.580,198.651 291.310,198.224 290.987 C 197.001 290.063,196.524 290.285,196.261 291.900 " stroke="none" fill="#2563EB" fill-rule="evenodd"></path><path id="path2" d="M218.600 254.400 C 218.464 254.620,217.744 254.800,217.000 254.800 C 216.256 254.800,215.536 254.980,215.400 255.200 C 215.264 255.420,214.724 255.600,214.200 255.600 C 213.676 255.600,213.136 255.780,213.000 256.000 C 212.864 256.220,212.133 256.400,211.376 256.400 C 210.619 256.400,210.000 256.580,210.000 256.800 C 210.000 257.020,209.381 257.200,208.624 257.200 C 207.867 257.200,207.147 257.362,207.025 257.559 C 206.903 257.757,205.542 258.045,204.000 258.200 C 202.458 258.355,201.097 258.643,200.975 258.841 C 200.853 259.038,200.324 259.200,199.800 259.200 C 199.276 259.200,198.736 259.380,198.600 259.600 C 198.464 259.820,197.744 260.000,197.000 260.000 C 196.256 260.000,195.536 260.180,195.400 260.400 C 195.264 260.620,194.544 260.800,193.800 260.800 C 193.056 260.800,192.336 260.980,192.200 261.200 C 192.064 261.420,191.333 261.600,190.576 261.600 C 189.819 261.600,189.200 261.780,189.200 262.000 C 189.200 262.220,188.480 262.400,187.600 262.400 C 186.720 262.400,186.000 262.580,186.000 262.800 C 186.000 263.020,185.381 263.200,184.624 263.200 C 183.867 263.200,183.136 263.380,183.000 263.600 C 182.864 263.820,182.324 264.000,181.800 264.000 C 181.276 264.000,180.736 264.180,180.600 264.400 C 180.464 264.620,179.744 264.800,179.000 264.800 C 178.256 264.800,177.536 264.980,177.400 265.200 C 177.264 265.420,176.544 265.600,175.800 265.600 C 175.056 265.600,174.336 265.780,174.200 266.000 C 174.064 266.220,173.344 266.400,172.600 266.400 C 171.856 266.400,171.136 266.580,171.000 266.800 C 170.864 267.020,170.133 267.200,169.376 267.200 C 168.619 267.200,168.000 267.380,168.000 267.600 C 168.000 267.820,167.460 268.000,166.800 268.000 C 166.140 268.000,165.600 268.180,165.600 268.400 C 165.600 268.620,164.880 268.800,164.000 268.800 C 163.120 268.800,162.400 268.980,162.400 269.200 C 162.400 269.420,161.781 269.600,161.024 269.600 C 160.267 269.600,159.536 269.780,159.400 270.000 C 159.264 270.220,158.724 270.400,158.199 270.400 C 157.568 270.400,156.798 270.949,155.923 272.023 C 155.195 272.915,154.105 274.194,153.500 274.865 C 152.895 275.536,152.400 276.233,152.400 276.414 C 152.400 276.595,152.175 276.981,151.900 277.271 C 151.625 277.562,151.145 278.295,150.832 278.900 C 150.520 279.505,149.929 280.000,149.520 280.000 C 148.825 280.000,148.778 280.391,148.823 285.800 C 148.857 289.905,149.007 291.602,149.336 291.606 C 149.598 291.610,149.539 291.781,149.200 292.000 C 148.800 292.258,148.767 292.390,149.100 292.394 C 149.463 292.398,149.600 293.390,149.600 296.000 C 149.600 298.133,149.763 299.600,150.000 299.600 C 150.231 299.600,150.400 300.859,150.400 302.576 C 150.400 304.213,150.580 305.664,150.800 305.800 C 151.020 305.936,151.200 307.387,151.200 309.024 C 151.200 310.741,151.369 312.000,151.600 312.000 C 151.825 312.000,152.000 313.125,152.000 314.576 C 152.000 315.993,152.180 317.264,152.400 317.400 C 152.620 317.536,152.800 318.616,152.800 319.800 C 152.800 320.984,152.980 322.064,153.200 322.200 C 153.420 322.336,153.600 323.427,153.600 324.624 C 153.600 325.821,153.780 326.800,154.000 326.800 C 154.222 326.800,154.400 327.867,154.400 329.200 C 154.400 330.533,154.578 331.600,154.800 331.600 C 155.020 331.600,155.200 332.500,155.200 333.600 C 155.200 334.700,155.362 335.600,155.560 335.600 C 155.896 335.600,156.083 336.575,156.649 341.300 C 156.775 342.345,157.040 343.200,157.239 343.200 C 157.437 343.200,157.600 343.920,157.600 344.800 C 157.600 345.680,157.754 346.400,157.943 346.400 C 158.132 346.400,158.403 347.435,158.545 348.700 C 158.895 351.811,158.997 352.331,159.322 352.655 C 159.475 352.808,159.600 353.323,159.600 353.800 C 159.600 354.277,159.735 354.802,159.900 354.967 C 160.065 355.132,160.212 355.387,160.226 355.533 C 160.287 356.167,161.306 359.460,161.637 360.095 C 161.837 360.477,162.000 361.242,162.000 361.795 C 162.000 362.348,162.135 362.801,162.300 362.803 C 162.665 362.807,163.600 364.749,163.600 365.503 C 163.600 365.802,163.780 365.936,164.000 365.800 C 164.220 365.664,164.400 365.841,164.400 366.193 C 164.400 366.545,164.760 367.220,165.200 367.692 C 165.640 368.164,166.000 368.800,166.000 369.104 C 166.000 370.919,168.336 371.057,170.872 369.392 C 172.300 368.455,174.800 365.295,174.800 364.428 C 174.800 364.193,174.980 364.000,175.200 364.000 C 175.420 364.000,175.600 363.747,175.600 363.438 C 175.600 363.129,175.986 362.094,176.457 361.138 C 176.928 360.182,177.468 358.995,177.657 358.500 C 177.968 357.683,178.200 357.112,179.238 354.600 C 179.754 353.350,183.027 342.915,184.037 339.300 C 184.237 338.585,184.568 337.415,184.772 336.700 C 186.161 331.853,187.582 326.260,187.873 324.496 C 187.992 323.779,188.249 323.094,188.444 322.973 C 188.640 322.852,188.800 322.144,188.800 321.400 C 188.800 320.656,188.961 319.948,189.158 319.826 C 189.355 319.705,189.610 318.929,189.725 318.103 C 189.840 317.276,190.141 315.790,190.392 314.800 C 190.643 313.810,190.940 312.460,191.052 311.800 C 191.163 311.140,191.410 310.240,191.600 309.800 C 191.938 309.018,192.229 307.625,192.644 304.800 C 192.757 304.030,193.007 303.040,193.200 302.600 C 193.393 302.160,193.641 301.170,193.751 300.400 C 193.934 299.120,194.276 297.388,195.212 293.000 C 195.399 292.120,195.851 289.780,196.216 287.800 C 196.809 284.582,197.818 282.348,199.198 281.200 C 199.330 281.090,199.875 280.370,200.408 279.600 C 200.941 278.830,201.787 277.752,202.289 277.204 C 202.790 276.656,203.200 276.077,203.200 275.917 C 203.200 275.758,203.830 274.997,204.600 274.227 C 205.370 273.457,206.000 272.667,206.000 272.473 C 206.000 272.278,206.540 271.554,207.200 270.863 C 207.860 270.172,208.400 269.465,208.400 269.290 C 208.400 269.116,208.939 268.349,209.599 267.586 C 210.258 266.824,211.647 265.030,212.685 263.600 C 213.724 262.170,214.895 260.709,215.287 260.353 C 215.679 259.997,216.000 259.529,216.000 259.312 C 216.000 259.096,216.540 258.354,217.200 257.663 C 217.860 256.972,218.400 256.260,218.400 256.079 C 218.400 255.899,218.767 255.357,219.216 254.875 C 219.842 254.203,219.894 254.000,219.439 254.000 C 219.114 254.000,218.736 254.180,218.600 254.400 " stroke="none" fill="#2563EB" fill-rule="evenodd"></path><path id="path3" d="M367.581 57.418 C 343.188 80.555,304.597 117.531,295.586 126.400 C 294.356 127.610,291.652 130.217,289.575 132.194 C 272.058 148.871,237.527 182.908,211.857 208.800 C 190.754 230.086,190.048 230.802,186.000 235.048 C 184.130 237.009,180.440 240.866,177.800 243.620 C 175.160 246.374,172.111 249.611,171.025 250.813 C 169.939 252.016,167.869 254.272,166.425 255.826 C 163.175 259.324,161.613 261.080,158.800 264.397 C 157.590 265.824,156.121 267.534,155.537 268.196 C 152.171 272.007,147.600 278.521,147.600 279.506 C 147.600 280.638,149.335 279.797,150.202 278.244 C 151.087 276.658,155.338 270.850,156.675 269.400 C 157.081 268.960,157.770 268.138,158.206 267.574 C 159.466 265.946,163.537 261.320,166.800 257.809 C 168.450 256.033,170.763 253.504,171.941 252.190 C 177.636 245.831,218.490 203.960,227.706 195.036 C 229.958 192.856,238.370 184.575,246.400 176.634 C 269.191 154.096,303.370 120.980,336.200 89.626 C 343.900 82.272,351.820 74.702,353.800 72.802 C 369.279 57.956,372.821 54.604,374.039 53.651 C 374.611 53.203,376.141 51.524,377.438 49.919 C 378.736 48.313,379.956 46.886,380.148 46.746 C 380.340 46.607,380.422 46.266,380.330 45.989 C 380.235 45.706,374.634 50.727,367.581 57.418 M381.208 48.700 C 379.393 50.481,372.507 58.949,365.025 68.600 C 349.009 89.259,346.981 91.870,343.177 96.734 C 341.514 98.860,339.185 101.860,337.999 103.400 C 333.202 109.635,321.789 124.340,321.081 125.200 C 320.809 125.530,319.137 127.690,317.365 130.000 C 315.593 132.310,311.403 137.710,308.055 142.000 C 304.707 146.290,301.569 150.322,301.083 150.960 C 300.598 151.597,299.269 153.307,298.132 154.760 C 296.995 156.212,290.202 164.960,283.036 174.200 C 275.871 183.440,268.745 192.620,267.200 194.600 C 262.003 201.263,257.547 206.990,256.470 208.391 C 255.882 209.157,253.780 211.874,251.800 214.429 C 249.820 216.985,247.750 219.669,247.200 220.394 C 246.062 221.895,234.870 236.316,233.399 238.177 C 232.868 238.850,229.997 242.550,227.020 246.400 C 224.043 250.250,220.344 255.020,218.801 257.000 C 217.258 258.980,214.536 262.490,212.753 264.800 C 210.970 267.110,209.088 269.540,208.572 270.200 C 208.056 270.860,206.243 273.200,204.544 275.400 C 202.845 277.600,200.614 280.485,199.587 281.812 C 198.290 283.487,197.569 284.892,197.229 286.412 C 196.959 287.615,196.583 289.140,196.393 289.800 C 196.075 290.908,195.207 294.888,194.352 299.166 C 194.158 300.138,194.081 301.014,194.180 301.114 C 194.280 301.213,194.444 300.868,194.546 300.347 C 195.350 296.217,195.735 294.441,196.043 293.440 C 196.239 292.802,196.400 291.857,196.400 291.340 C 196.400 290.267,197.094 290.133,198.224 290.987 C 198.651 291.310,199.317 291.580,199.705 291.587 C 200.093 291.594,200.723 291.762,201.105 291.961 C 201.487 292.160,202.610 292.540,203.600 292.807 C 204.590 293.074,205.850 293.430,206.400 293.598 C 206.950 293.766,208.750 294.312,210.400 294.811 C 214.102 295.930,220.716 298.186,226.800 300.405 C 229.330 301.327,231.808 302.175,232.306 302.289 C 232.804 302.403,233.310 302.654,233.430 302.848 C 233.549 303.041,233.937 303.200,234.292 303.200 C 234.647 303.200,235.274 303.505,235.686 303.878 C 236.348 304.477,236.406 304.481,236.186 303.909 C 236.050 303.553,235.727 303.184,235.469 303.088 C 235.211 302.993,232.210 301.887,228.800 300.630 C 225.390 299.374,222.287 298.178,221.905 297.973 C 221.523 297.768,220.884 297.600,220.485 297.600 C 220.086 297.600,219.589 297.452,219.380 297.272 C 219.171 297.092,217.650 296.530,216.000 296.024 C 214.350 295.519,212.640 294.967,212.200 294.798 C 211.760 294.629,210.590 294.270,209.600 294.000 C 208.610 293.730,207.440 293.370,207.000 293.200 C 206.560 293.030,205.390 292.666,204.400 292.392 C 198.692 290.807,198.578 290.754,198.664 289.748 C 198.989 285.973,200.021 283.490,202.313 280.966 C 202.696 280.545,204.028 278.850,205.274 277.200 C 207.217 274.627,218.108 260.612,220.971 257.000 C 222.134 255.533,233.682 240.654,234.914 239.036 C 235.401 238.396,236.970 236.391,238.400 234.581 C 240.534 231.880,244.140 227.232,248.877 221.080 C 249.250 220.596,250.420 219.104,251.477 217.764 C 252.535 216.424,253.850 214.734,254.400 214.010 C 254.950 213.285,258.087 209.252,261.371 205.046 C 264.654 200.841,267.896 196.680,268.574 195.800 C 269.252 194.920,272.595 190.622,276.003 186.248 C 279.412 181.875,282.966 177.285,283.901 176.048 C 284.837 174.812,286.121 173.170,286.754 172.400 C 287.387 171.630,288.692 169.979,289.653 168.732 C 291.975 165.717,299.526 155.991,302.904 151.664 C 304.391 149.759,306.863 146.580,308.396 144.600 C 315.683 135.191,322.911 125.877,325.600 122.431 C 326.590 121.163,329.650 117.200,332.400 113.624 C 335.150 110.049,337.670 106.804,338.000 106.413 C 338.330 106.022,343.100 99.901,348.600 92.811 C 354.100 85.721,360.447 77.553,362.705 74.660 C 369.513 65.935,372.134 62.554,378.409 54.400 C 381.711 50.110,384.596 46.375,384.822 46.100 C 386.226 44.387,383.888 46.069,381.208 48.700 M193.654 302.200 C 193.619 302.640,193.489 303.450,193.367 304.000 C 193.175 304.863,193.207 304.903,193.598 304.290 C 193.847 303.899,193.977 303.089,193.886 302.490 C 193.778 301.779,193.697 301.679,193.654 302.200 M192.854 305.800 C 192.819 306.240,192.689 307.050,192.567 307.600 C 192.375 308.463,192.407 308.503,192.798 307.890 C 193.047 307.499,193.177 306.689,193.086 306.090 C 192.978 305.379,192.897 305.279,192.854 305.800 M192.060 309.467 C 192.027 309.944,191.884 310.664,191.741 311.067 C 191.542 311.631,191.595 311.696,191.972 311.349 C 192.242 311.101,192.385 310.381,192.291 309.749 C 192.170 308.939,192.102 308.856,192.060 309.467 M191.249 312.800 C 191.216 313.130,191.089 313.850,190.967 314.400 C 190.775 315.264,190.807 315.303,191.199 314.688 C 191.448 314.297,191.575 313.577,191.481 313.088 C 191.386 312.600,191.282 312.470,191.249 312.800 M190.449 316.000 C 190.416 316.330,190.289 317.050,190.167 317.600 C 189.975 318.464,190.007 318.503,190.399 317.888 C 190.648 317.497,190.775 316.777,190.681 316.288 C 190.586 315.800,190.482 315.670,190.449 316.000 M189.429 320.229 C 189.281 320.815,189.251 321.384,189.361 321.494 C 189.471 321.604,189.681 321.215,189.829 320.629 C 189.976 320.042,190.006 319.473,189.896 319.363 C 189.786 319.253,189.576 319.642,189.429 320.229 M188.629 323.429 C 188.481 324.015,188.451 324.584,188.561 324.694 C 188.671 324.804,188.881 324.415,189.029 323.829 C 189.176 323.242,189.206 322.673,189.096 322.563 C 188.986 322.453,188.776 322.842,188.629 323.429 M187.829 326.629 C 187.681 327.215,187.651 327.784,187.761 327.894 C 187.871 328.004,188.081 327.615,188.229 327.029 C 188.376 326.442,188.406 325.873,188.296 325.763 C 188.186 325.653,187.976 326.042,187.829 326.629 M187.246 329.067 C 187.221 329.324,187.084 329.864,186.941 330.267 C 186.740 330.836,186.794 330.897,187.179 330.542 C 187.452 330.291,187.589 329.751,187.484 329.342 C 187.379 328.934,187.272 328.810,187.246 329.067 M186.229 332.629 C 186.081 333.215,186.051 333.784,186.161 333.894 C 186.271 334.004,186.481 333.615,186.629 333.029 C 186.776 332.442,186.806 331.873,186.696 331.763 C 186.586 331.653,186.376 332.042,186.229 332.629 M184.600 338.400 C 184.450 338.873,184.417 339.350,184.527 339.460 C 184.637 339.570,184.850 339.273,185.000 338.800 C 185.150 338.327,185.183 337.850,185.073 337.740 C 184.963 337.630,184.750 337.927,184.600 338.400 M183.800 341.200 C 183.650 341.673,183.617 342.150,183.727 342.260 C 183.837 342.370,184.050 342.073,184.200 341.600 C 184.350 341.127,184.383 340.650,184.273 340.540 C 184.163 340.430,183.950 340.727,183.800 341.200 M182.273 346.153 C 182.123 346.545,182.011 347.166,182.025 347.533 C 182.042 347.975,182.181 347.874,182.437 347.234 C 182.649 346.703,182.761 346.082,182.685 345.854 C 182.609 345.627,182.424 345.761,182.273 346.153 M181.467 348.667 C 181.320 348.813,181.211 349.308,181.225 349.767 C 181.249 350.533,181.282 350.523,181.634 349.642 C 182.026 348.663,181.944 348.189,181.467 348.667 M180.577 351.443 C 180.444 351.859,180.170 352.613,179.967 353.119 C 179.765 353.624,179.610 354.254,179.622 354.519 C 179.634 354.783,180.000 354.121,180.436 353.047 C 180.872 351.973,181.136 351.003,181.023 350.890 C 180.911 350.778,180.710 351.026,180.577 351.443 M178.274 357.874 C 177.690 359.344,177.278 360.611,177.357 360.691 C 177.436 360.770,177.981 359.635,178.568 358.168 C 179.155 356.702,179.568 355.435,179.485 355.352 C 179.402 355.269,178.857 356.404,178.274 357.874 M174.816 365.304 C 174.307 366.237,173.150 367.801,172.245 368.780 C 171.340 369.759,170.956 370.299,171.390 369.980 C 172.982 368.811,176.317 364.183,175.881 363.747 C 175.804 363.671,175.326 364.372,174.816 365.304 " stroke="none" fill="#2563EB" fill-rule="evenodd"></path><path id="path4" d="M375.931 52.100 C 373.177 54.795,369.680 58.170,368.160 59.600 C 361.389 65.970,344.146 82.417,338.805 87.600 C 338.011 88.370,335.841 90.435,333.981 92.189 C 332.121 93.944,327.616 98.264,323.969 101.789 C 320.321 105.315,315.371 110.074,312.969 112.364 C 305.049 119.912,289.119 135.286,282.201 142.057 C 278.460 145.719,271.812 152.199,267.426 156.457 C 233.742 189.164,180.160 243.119,170.968 253.586 C 170.106 254.569,168.385 256.459,167.143 257.786 C 159.059 266.434,150.000 277.720,150.000 279.145 C 150.000 279.358,149.775 279.624,149.500 279.735 C 149.173 279.867,149.219 279.948,149.632 279.968 C 149.980 279.986,150.520 279.505,150.832 278.900 C 151.145 278.295,151.625 277.562,151.900 277.271 C 152.175 276.981,152.400 276.595,152.400 276.414 C 152.400 276.233,152.895 275.536,153.500 274.865 C 154.105 274.194,155.195 272.915,155.923 272.023 C 156.798 270.949,157.568 270.400,158.199 270.400 C 158.724 270.400,159.264 270.220,159.400 270.000 C 159.536 269.780,160.267 269.600,161.024 269.600 C 161.781 269.600,162.400 269.420,162.400 269.200 C 162.400 268.980,163.120 268.800,164.000 268.800 C 164.880 268.800,165.600 268.620,165.600 268.400 C 165.600 268.180,166.140 268.000,166.800 268.000 C 167.460 268.000,168.000 267.820,168.000 267.600 C 168.000 267.380,168.619 267.200,169.376 267.200 C 170.133 267.200,170.864 267.020,171.000 266.800 C 171.136 266.580,171.856 266.400,172.600 266.400 C 173.344 266.400,174.064 266.220,174.200 266.000 C 174.336 265.780,175.056 265.600,175.800 265.600 C 176.544 265.600,177.264 265.420,177.400 265.200 C 177.536 264.980,178.256 264.800,179.000 264.800 C 179.744 264.800,180.464 264.620,180.600 264.400 C 180.736 264.180,181.276 264.000,181.800 264.000 C 182.324 264.000,182.864 263.820,183.000 263.600 C 183.136 263.380,183.867 263.200,184.624 263.200 C 185.381 263.200,186.000 263.020,186.000 262.800 C 186.000 262.580,186.720 262.400,187.600 262.400 C 188.480 262.400,189.200 262.220,189.200 262.000 C 189.200 261.780,189.819 261.600,190.576 261.600 C 191.333 261.600,192.064 261.420,192.200 261.200 C 192.336 260.980,193.056 260.800,193.800 260.800 C 194.544 260.800,195.264 260.620,195.400 260.400 C 195.536 260.180,196.256 260.000,197.000 260.000 C 197.744 260.000,198.464 259.820,198.600 259.600 C 198.736 259.380,199.276 259.200,199.800 259.200 C 200.324 259.200,200.853 259.038,200.975 258.841 C 201.097 258.643,202.458 258.355,204.000 258.200 C 205.542 258.045,206.903 257.757,207.025 257.559 C 207.147 257.362,207.867 257.200,208.624 257.200 C 209.381 257.200,210.000 257.020,210.000 256.800 C 210.000 256.580,210.619 256.400,211.376 256.400 C 212.133 256.400,212.864 256.220,213.000 256.000 C 213.136 255.780,213.676 255.600,214.200 255.600 C 214.724 255.600,215.264 255.420,215.400 255.200 C 215.536 254.980,216.256 254.800,217.000 254.800 C 217.744 254.800,218.464 254.620,218.600 254.400 C 218.736 254.180,219.114 254.000,219.439 254.000 C 219.894 254.000,219.842 254.203,219.216 254.875 C 218.767 255.357,218.400 255.899,218.400 256.079 C 218.400 256.260,217.860 256.972,217.200 257.663 C 216.540 258.354,216.000 259.096,216.000 259.312 C 216.000 259.529,215.679 259.997,215.287 260.353 C 214.895 260.709,213.724 262.170,212.685 263.600 C 211.647 265.030,210.258 266.824,209.599 267.586 C 208.939 268.349,208.400 269.116,208.400 269.290 C 208.400 269.465,207.860 270.172,207.200 270.863 C 206.092 272.022,205.556 273.121,206.333 272.641 C 206.516 272.528,208.541 269.982,210.833 266.984 C 213.125 263.986,215.747 260.566,216.659 259.385 C 217.571 258.204,219.814 255.295,221.643 252.919 C 223.471 250.544,225.065 248.510,225.184 248.400 C 225.303 248.290,226.562 246.670,227.983 244.800 C 229.404 242.930,230.664 241.310,230.784 241.200 C 230.904 241.090,231.809 239.920,232.794 238.600 C 233.780 237.280,236.209 234.130,238.193 231.600 C 240.177 229.070,242.340 226.290,243.000 225.422 C 243.660 224.554,245.820 221.741,247.800 219.172 C 249.780 216.602,252.828 212.632,254.573 210.350 C 256.318 208.067,257.857 206.110,257.992 206.000 C 258.128 205.890,258.677 205.170,259.214 204.400 C 259.750 203.630,260.414 202.730,260.689 202.400 C 261.315 201.650,267.425 193.817,269.893 190.600 C 273.386 186.047,274.201 184.999,274.401 184.800 C 274.512 184.690,275.411 183.520,276.400 182.200 C 277.389 180.880,278.293 179.710,278.409 179.600 C 278.526 179.490,279.236 178.590,279.988 177.600 C 280.740 176.610,282.205 174.720,283.245 173.400 C 285.216 170.895,290.989 163.447,292.516 161.436 C 293.002 160.796,294.210 159.250,295.200 158.000 C 296.190 156.750,297.450 155.124,298.000 154.387 C 298.550 153.651,300.440 151.218,302.200 148.982 C 303.960 146.746,305.850 144.318,306.400 143.587 C 307.623 141.960,309.307 139.871,309.613 139.600 C 309.737 139.490,310.277 138.770,310.814 138.000 C 311.350 137.230,312.011 136.330,312.283 136.000 C 312.555 135.670,314.436 133.240,316.464 130.600 C 318.492 127.960,320.261 125.710,320.395 125.600 C 320.529 125.490,321.074 124.770,321.606 124.000 C 322.138 123.230,322.760 122.404,322.987 122.163 C 323.214 121.923,323.850 121.130,324.400 120.400 C 324.950 119.670,325.580 118.877,325.800 118.637 C 326.020 118.396,327.010 117.120,328.000 115.800 C 328.990 114.480,329.980 113.201,330.200 112.958 C 330.420 112.715,332.220 110.396,334.200 107.806 C 336.180 105.215,338.970 101.618,340.400 99.812 C 341.830 98.006,343.450 95.931,344.000 95.202 C 344.989 93.891,355.748 80.024,357.732 77.504 C 359.664 75.049,366.214 66.602,368.977 63.000 C 370.497 61.020,371.852 59.310,371.989 59.200 C 372.126 59.090,372.674 58.370,373.206 57.600 C 373.738 56.830,374.360 56.004,374.587 55.763 C 374.814 55.523,375.450 54.726,376.000 53.992 C 377.263 52.307,378.786 50.433,379.732 49.400 C 380.494 48.568,381.335 47.200,381.084 47.200 C 381.004 47.200,378.686 49.405,375.931 52.100 M204.600 274.124 C 204.160 274.606,203.497 275.470,203.128 276.044 C 202.758 276.618,202.212 277.338,201.914 277.644 C 201.617 277.950,200.938 278.830,200.406 279.600 C 199.874 280.370,199.330 281.090,199.198 281.200 C 197.576 282.549,195.271 289.005,196.112 289.845 C 196.227 289.960,196.441 289.277,196.588 288.327 C 197.098 285.038,198.454 282.229,200.414 280.400 C 201.138 279.725,205.937 273.204,205.695 273.224 C 205.533 273.238,205.040 273.643,204.600 274.124 M195.473 291.353 C 195.323 291.745,195.216 292.546,195.236 293.133 C 195.270 294.128,195.298 294.109,195.657 292.863 C 196.073 291.419,195.923 290.182,195.473 291.353 M194.578 295.778 C 194.427 296.581,194.404 297.337,194.526 297.460 C 194.648 297.582,194.872 297.025,195.022 296.222 C 195.173 295.419,195.196 294.663,195.074 294.540 C 194.952 294.418,194.728 294.975,194.578 295.778 M193.873 298.953 C 193.723 299.345,193.616 300.146,193.636 300.733 C 193.670 301.728,193.698 301.709,194.057 300.463 C 194.473 299.019,194.323 297.782,193.873 298.953 M193.067 302.667 C 192.920 302.813,192.816 303.488,192.836 304.167 L 192.872 305.400 193.259 304.056 C 193.645 302.713,193.569 302.164,193.067 302.667 M192.249 306.615 C 192.112 306.973,192.016 307.656,192.036 308.133 C 192.062 308.747,192.185 308.608,192.459 307.656 C 192.857 306.272,192.694 305.458,192.249 306.615 M191.467 309.867 C 191.320 310.013,191.216 310.688,191.236 311.367 L 191.272 312.600 191.659 311.256 C 192.045 309.913,191.969 309.364,191.467 309.867 M190.649 313.415 C 190.512 313.773,190.416 314.456,190.436 314.933 C 190.462 315.547,190.585 315.408,190.859 314.456 C 191.257 313.072,191.094 312.258,190.649 313.415 M189.849 316.615 C 189.712 316.973,189.618 317.746,189.640 318.333 C 189.673 319.191,189.752 319.095,190.046 317.840 C 190.422 316.239,190.295 315.453,189.849 316.615 M189.067 319.867 C 188.920 320.013,188.818 320.688,188.841 321.367 L 188.882 322.600 189.210 321.203 C 189.553 319.747,189.517 319.416,189.067 319.867 M188.242 323.243 C 188.145 323.549,187.952 324.340,187.815 325.000 C 187.404 326.969,185.746 333.337,184.795 336.600 C 184.603 337.260,184.270 338.430,184.056 339.200 C 183.841 339.970,183.294 341.848,182.840 343.374 C 182.386 344.899,182.101 346.234,182.207 346.340 C 182.313 346.447,182.400 346.458,182.400 346.365 C 182.400 346.273,182.775 344.938,183.233 343.399 C 183.691 341.859,184.241 339.970,184.456 339.200 C 184.670 338.430,184.999 337.260,185.188 336.600 C 187.252 329.373,188.817 323.084,188.605 322.871 C 188.502 322.769,188.339 322.936,188.242 323.243 M173.576 366.638 C 173.087 367.429,171.966 368.599,171.084 369.238 C 170.202 369.877,169.655 370.400,169.868 370.400 C 170.544 370.400,173.597 367.567,174.221 366.360 C 175.063 364.732,174.642 364.913,173.576 366.638 " stroke="none" fill="#2563EB" fill-rule="evenodd"></path></g></svg>